# xmcd CD database file
#
# Track frame offsets:
#	150
#	17845
#	36144
#	55617
#	73690
#	93265
#	110225
#	127249
#	142413
#	163516
#	183475
#	201942
#	220685
#	238780
#
# Disc length: 3451 seconds
#
# Revision: 1
# Processed by: cddbd v1.5.1PL0 Copyright (c) Steve Scherf et al.
# Submitted via: CDex 1.51
#
DISCID=d60d790e
DTITLE=Craig David - THE STORY GOES...
DYEAR=2005
DGENRE=R&B
TTITLE0=ALL THE WAY
TTITLE1=DON'T LOVE YOU NO MORE (I'M SORRY)
TTITLE2=HYPNOTIC
TTITLE3=SEPARATE WAYS
TTITLE4=JOHNNY
TTITLE5=DO YOU BELIEVE IN LOVE
TTITLE6=ONE LAST DANCE
TTITLE7=UNBELIEVABLE
TTITLE8=JUST CHILLIN'
TTITLE9=THIEF IN THE NIGHT
TTITLE10=TAKE 'EM OFF
TTITLE11=MY LOVE DON'T STOP
TTITLE12=LET HER GO
TTITLE13=ALL THE WAY (H MONEY MIX feat. LYRACRIS)
EXTD=YEAR: 2005
EXTT0=
EXTT1=
EXTT2=
EXTT3=
EXTT4=
EXTT5=
EXTT6=
EXTT7=
EXTT8=
EXTT9=
EXTT10=
EXTT11=
EXTT12=
EXTT13=
PLAYORDER=
